<?xml version="1.0" standalone="no"?>
<!DOCTYPE svg PUBLIC "-//W3C//DTD SVG 20010904//EN"
 "http://www.w3.org/TR/2001/REC-SVG-20010904/DTD/svg10.dtd">
<svg version="1.0" xmlns="http://www.w3.org/2000/svg"
 width="88.000000pt" height="88.000000pt" viewBox="0 0 88.000000 88.000000"
 preserveAspectRatio="xMidYMid meet">
<metadata>
Created by potrace 1.14, written by Peter Selinger 2001-2017
</metadata>
<g transform="translate(0.000000,88.000000) scale(0.100000,-0.100000)"
fill="#000000" stroke="none">
<path d="M0 440 l0 -370 440 0 440 0 0 370 0 370 -440 0 -440 0 0 -370z m710
191 l0 -80 -219 -3 c-199 -3 -221 -5 -240 -22 -29 -26 -30 -113 -2 -147 19
-24 22 -24 240 -27 l221 -3 0 -80 0 -79 -220 0 c-139 0 -228 4 -243 11 -46 21
-52 48 -52 249 0 198 6 228 49 248 12 6 112 11 244 11 l222 1 0 -79z"/>
</g>
</svg>
