<?xml version="1.0" standalone="no"?>
<!DOCTYPE svg PUBLIC "-//W3C//DTD SVG 20010904//EN"
 "http://www.w3.org/TR/2001/REC-SVG-20010904/DTD/svg10.dtd">
<svg version="1.0" xmlns="http://www.w3.org/2000/svg"
 width="232.000000pt" height="232.000000pt" viewBox="0 0 232.000000 232.000000"
 preserveAspectRatio="xMidYMid meet">
<metadata>
Created by potrace 1.14, written by Peter Selinger 2001-2017
</metadata>
<g transform="translate(0.000000,232.000000) scale(0.100000,-0.100000)"
fill="#000000" stroke="none">
<path d="M0 1160 l0 -1160 1160 0 1160 0 0 1160 0 1160 -1160 0 -1160 0 0
-1160z m1908 543 l2 -233 -592 0 c-334 0 -623 -5 -661 -10 -94 -14 -140 -40
-174 -97 -27 -47 -28 -52 -28 -194 0 -145 0 -146 30 -194 43 -70 95 -103 180
-115 40 -5 323 -10 658 -10 l587 0 -2 -232 -3 -233 -625 0 c-563 0 -630 2
-681 17 -111 35 -176 110 -198 232 -15 83 -15 987 0 1058 14 64 49 135 81 164
37 35 105 64 166 73 31 5 327 8 657 7 l600 -1 3 -232z"/>
</g>
</svg>
